<svg id="Layer_35" enable-background="new 0 0 64 64" height="512" viewBox="0 0 64 64" width="512" xmlns="http://www.w3.org/2000/svg"><g fill="#f0bc5e"><path d="m39 43c-4.963 0-9-4.037-9-9s4.037-9 9-9 9 4.037 9 9-4.037 9-9 9z"/><path d="m38 21h-6v-12h6z"/><path d="m46 21h-6v-16h6z"/><path d="m30 21h-6v-8h6z"/><path d="m18 24h8v17h-8z"/></g><path d="m55 13h-5v-7c0-2.757-2.243-5-5-5h-34c-2.757 0-5 2.243-5 5v5h8v2h-5c-2.757 0-5 2.243-5 5v30c0 2.757 2.243 5 5 5h14.382l-2 4h-3.382c-1.654 0-3 1.346-3 3s1.346 3 3 3h28c1.654 0 3-1.346 3-3s-1.346-3-3-3h-3.382l-2-4h4.382 6 4c2.757 0 5-2.243 5-5v-30c0-2.757-2.243-5-5-5zm-5 6h4v24h-4zm-2-13v37h-32v-37c0-1.13-.391-2.162-1.026-3h30.026c1.654 0 3 1.346 3 3zm-34 37h-4v-24h4zm-6-34v-3c0-1.654 1.346-3 3-3s3 1.346 3 3v3zm39 51c0 .551-.449 1-1 1h-28c-.551 0-1-.449-1-1s.449-1 1-1h28c.551 0 1 .449 1 1zm-6.618-3h-16.764l2-4h12.764zm4.618-6c-.551 0-1-.449-1-1s.449-1 1-1h6c.551 0 1 .449 1 1s-.449 1-1 1zm13-3c0 1.654-1.346 3-3 3h-1.184c.112-.314.184-.648.184-1 0-1.654-1.346-3-3-3h-6c-1.654 0-3 1.346-3 3 0 .352.072.686.184 1h-33.184c-1.654 0-3-1.346-3-3v-30c0-1.654 1.346-3 3-3h5v2h-4c-1.103 0-2 .897-2 2v24c0 1.103.897 2 2 2h44c1.103 0 2-.897 2-2v-24c0-1.103-.897-2-2-2h-4v-2h5c1.654 0 3 1.346 3 3z"/><path d="m39 37c-.551 0-1-.449-1-1h-2c0 1.302.839 2.402 2 2.816v2.184h2v-2h2v-3c0-1.654-1.346-3-3-3-.551 0-1-.449-1-1v-1h1c.551 0 1 .449 1 1h2c0-1.302-.839-2.402-2-2.816v-2.184h-2v2h-2v3c0 1.654 1.346 3 3 3 .551 0 1 .449 1 1v1z"/><circle cx="33" cy="34" r="1"/><circle cx="45" cy="34" r="1"/><path d="m10 47h2v2h-2z"/><path d="m14 47h2v2h-2z"/><path d="m18 47h2v2h-2z"/><path d="m18 39h8v2h-8z"/><path d="m18 35h8v2h-8z"/><path d="m18 31h8v2h-8z"/><path d="m18 27h8v2h-8z"/><path d="m18 23h8v2h-8z"/><path d="m18 5h2v2h-2z"/><path d="m18 9h2v2h-2z"/><path d="m18 13h2v2h-2z"/></svg>