<svg id="Layer_1" height="512" viewBox="0 0 512 512" width="512" xmlns="http://www.w3.org/2000/svg" data-name="Layer 1"><path d="m502.36 412.31v31.83a23.473 23.473 0 0 1 -23.47 23.47h-112.82a23.466 23.466 0 0 1 -23.47-23.47v-31.83zm-67.59 27.65a12.29 12.29 0 1 0 -12.29 12.29 12.293 12.293 0 0 0 12.29-12.29z" fill="#f4b844"/><path d="m342.6 327.01v-35.6-54.23h159.76v175.13h-159.76v-16.92z" fill="#00ceb4"/><path d="m439.57 191.1h39.32a23.473 23.473 0 0 1 23.47 23.47v22.61h-159.76v-22.61a23.466 23.466 0 0 1 23.47-23.47z" fill="#f4b844"/><path d="m439.57 83.05v108.05h-38.15v-105.83h-333.2v206.14h274.38v35.6h-51.07l-7.85 8.51a38.635 38.635 0 0 1 -28.42 12.46h-40.88a38.673 38.673 0 0 1 -28.43-12.46l-7.85-8.51h-148.03v-243.96a38.655 38.655 0 0 1 38.66-38.66h332.18a38.662 38.662 0 0 1 38.66 38.66z" fill="#00acea"/><circle cx="422.48" cy="439.96" fill="#00efd1" r="12.29"/><path d="m401.42 85.27v105.83h-35.35a23.466 23.466 0 0 0 -23.47 23.47v76.84h-274.38v-206.14z" fill="#00efd1"/><path d="m342.6 327.01v68.38h-294.3a38.662 38.662 0 0 1 -38.66-38.66v-29.72h168.46l7.85 8.51a38.673 38.673 0 0 0 28.43 12.46h40.88a38.635 38.635 0 0 0 28.42-12.46l7.85-8.51z" fill="#fedb41"/><path d="m209.355 235.11a5.972 5.972 0 0 1 -3.614-1.214l-52.2-39.47a6 6 0 0 1 0-9.572l52.2-39.479a6 6 0 1 1 7.238 9.571l-45.872 34.694 45.872 34.684a6 6 0 0 1 -3.624 10.786z" fill="#00acea"/><path d="m260.274 235.11a6 6 0 0 1 -3.623-10.786l45.872-34.684-45.872-34.694a6 6 0 1 1 7.238-9.571l52.2 39.479a6 6 0 0 1 0 9.572l-52.2 39.47a5.98 5.98 0 0 1 -3.615 1.214z" fill="#00acea"/><path d="m225.917 254.821a6.008 6.008 0 0 1 -5.939-6.9l17.822-117.729a6 6 0 1 1 11.866 1.8l-17.82 117.73a6 6 0 0 1 -5.929 5.099z" fill="#00acea"/><path d="m442.45 218.61h-39.94a6 6 0 0 1 0-12h39.94a6 6 0 0 1 0 12z" fill="#00efd1"/><g fill="#fedb41"><path d="m484.34 270.93h-91.53a6 6 0 0 1 0-12h91.53a6 6 0 0 1 0 12z"/><path d="m484.34 300.66h-91.53a6 6 0 0 1 0-12h91.53a6 6 0 0 1 0 12z"/><path d="m484.34 330.38h-91.53a6 6 0 0 1 0-12h91.53a6 6 0 1 1 0 12z"/><path d="m484.34 360.11h-91.53a6 6 0 0 1 0-12h91.53a6 6 0 1 1 0 12z"/><path d="m484.34 389.84h-91.53a6 6 0 0 1 0-12h91.53a6 6 0 0 1 0 12z"/><path d="m373.99 270.93h-13.38a6 6 0 0 1 0-12h13.38a6 6 0 0 1 0 12z"/><path d="m373.99 300.66h-13.38a6 6 0 0 1 0-12h13.38a6 6 0 0 1 0 12z"/><path d="m373.99 330.38h-13.38a6 6 0 0 1 0-12h13.38a6 6 0 0 1 0 12z"/><path d="m373.99 360.11h-13.38a6 6 0 0 1 0-12h13.38a6 6 0 0 1 0 12z"/><path d="m373.99 389.84h-13.38a6 6 0 0 1 0-12h13.38a6 6 0 0 1 0 12z"/></g></svg>