<svg height="464pt" viewBox="0 0 464 464" width="464pt" xmlns="http://www.w3.org/2000/svg"><path d="m24 0h416v272h-416zm0 0" fill="#e4f2f9"/><path d="m32 272h400c17.671875 0 32 14.328125 32 32v160h-464v-160c0-17.671875 14.328125-32 32-32zm0 0" fill="#ffd782"/><path d="m304 72c0 39.765625-32.234375 72-72 72s-72-32.234375-72-72 32.234375-72 72-72 72 32.234375 72 72zm0 0" fill="#f6bf9b"/><path d="m208 144h48c35.347656 0 64 28.652344 64 64v64h-176v-64c0-35.347656 28.652344-64 64-64zm0 0" fill="#87cee9"/><path d="m208 144v128h-64v-64c0-35.347656 28.652344-64 64-64zm0 0" fill="#fff"/><path d="m320 272h-64v-128c35.347656 0 64 28.652344 64 64zm0 0" fill="#fff"/><path d="m208 192h48v80h-48zm0 0" fill="#cfdfe8"/><g fill="#7d8d9c"><path d="m56 112h32v32h-32zm0 0"/><path d="m96 40h32v32h-32zm0 0"/><path d="m80 176h32v32h-32zm0 0"/><path d="m352 48h32v32h-32zm0 0"/><path d="m80 240h32v32h-32zm0 0"/><path d="m352 240h32v32h-32zm0 0"/><path d="m352 176h32v32h-32zm0 0"/></g><path d="m248 352v-32h-32v32h-32v32h32v32h32v-32h32v-32zm0 0" fill="#e9686a"/><path d="m152 88h-96c-4.417969 0-8-3.582031-8-8s3.582031-8 8-8h96c4.417969 0 8 3.582031 8 8s-3.582031 8-8 8zm0 0" fill="#c1cfdb"/><path d="m136 152h-80c-4.417969 0-8-3.582031-8-8s3.582031-8 8-8h80c4.417969 0 8 3.582031 8 8s-3.582031 8-8 8zm0 0" fill="#c1cfdb"/><path d="m408 88h-96c-4.417969 0-8-3.582031-8-8s3.582031-8 8-8h96c4.417969 0 8 3.582031 8 8s-3.582031 8-8 8zm0 0" fill="#c1cfdb"/><path d="m136 216h-80c-4.417969 0-8-3.582031-8-8s3.582031-8 8-8h80c4.417969 0 8 3.582031 8 8s-3.582031 8-8 8zm0 0" fill="#c1cfdb"/><path d="m408 216h-80c-4.417969 0-8-3.582031-8-8s3.582031-8 8-8h80c4.417969 0 8 3.582031 8 8s-3.582031 8-8 8zm0 0" fill="#c1cfdb"/><path d="m336 112h32v32h-32zm0 0" fill="#7d8d9c"/><path d="m416 152h-96c-4.417969 0-8-3.582031-8-8s3.582031-8 8-8h96c4.417969 0 8 3.582031 8 8s-3.582031 8-8 8zm0 0" fill="#c1cfdb"/></svg>