<svg height="512" viewBox="0 0 512 512" width="512" xmlns="http://www.w3.org/2000/svg"><path d="m416 280v144h-128v-144h20.8a11.194 11.194 0 0 0 11.2-11.2v-52.8h64v52.8a11.194 11.194 0 0 0 11.2 11.2z" fill="#fec9a3"/><path d="m384 248.427v-32.427h-64v32.427a71.4 71.4 0 0 0 64 0z" fill="#feb784"/><path d="m416 40h-48v32h48v120a56 56 0 0 0 56 56v-152a56 56 0 0 0 -56-56z" fill="#61311b"/><path d="m424 104h16v16h-16z" fill="#7a432a"/><path d="m264 104h16v16h-16z" fill="#7a432a"/><path d="m424 112v56a72.006 72.006 0 0 1 -72 72c-.79 0-1.57-.01-2.35-.04a72.009 72.009 0 0 1 -69.65-71.96v-56c0-.15 0-.29.01-.44a63.984 63.984 0 0 1 63.99-63.56h16c1.87 0 3.73.08 5.56.24a63.988 63.988 0 0 1 58.44 63.76z" fill="#fec9a3"/><path d="m424 112v56a72.006 72.006 0 0 1 -72 72c-.79 0-1.57-.01-2.35-.04a72.013 72.013 0 0 0 42.35-65.63v-70.33a71.775 71.775 0 0 0 -21.09-50.91c-1.7-1.7-3.49-3.32-5.35-4.85a64 64 0 0 1 58.44 63.76z" fill="#fec093"/><path d="m396.12 59.16c-12.57 30.46-54.43 52.84-104.12 52.84-1.19 0-2.36-.01-3.53-.04-2.85-.06-5.67-.2-8.46-.4a63.984 63.984 0 0 1 63.99-63.56h16c1.87 0 3.73.08 5.56.24a63.468 63.468 0 0 1 30.56 10.92z" fill="#fec093"/><path d="m440 104v8h-16l-32-44.8-8-11.2-10.75 10.75a154.4 154.4 0 0 1 -50.12 33.49 154.516 154.516 0 0 1 -59.13 11.76v-8a79.978 79.978 0 0 1 80-80h16a79.589 79.589 0 0 1 16 1.61 78.052 78.052 0 0 1 16 5.06 80.008 80.008 0 0 1 48 73.33z" fill="#7a432a"/><path d="m440 104v8h-16l-32-44.8-8-11.2-5.72 5.72a72.049 72.049 0 0 0 -58.28-29.72 71.49 71.49 0 0 0 -13.34 1.24 79.549 79.549 0 0 1 37.34-9.24h16a79.589 79.589 0 0 1 16 1.61 78.052 78.052 0 0 1 16 5.06 80.008 80.008 0 0 1 48 73.33z" fill="#6e3c24"/><path d="m424 112a24 24 0 0 1 24 24 24 24 0 0 1 -24 24 0 0 0 0 1 0 0v-48a0 0 0 0 1 0 0z" fill="#feb784"/><path d="m256 112a24 24 0 0 1 24 24 24 24 0 0 1 -24 24 0 0 0 0 1 0 0v-48a0 0 0 0 1 0 0z" fill="#feb784" transform="matrix(-1 0 0 -1 536 272)"/><path d="m328 140a12 12 0 1 0 -12 12 12.013 12.013 0 0 0 12-12z" fill="#82482d"/><path d="m388 128a12 12 0 1 0 12 12 12.013 12.013 0 0 0 -12-12z" fill="#82482d"/><path d="m352 184a8.005 8.005 0 0 1 -8-8h-16a24 24 0 0 0 48 0h-16a8.005 8.005 0 0 1 -8 8z" fill="#f7a468"/><path d="m184 461.075v-77.075h48l5.77 75.01a26.924 26.924 0 0 1 -26.845 28.99 26.925 26.925 0 0 1 -26.925-26.925z" fill="#348fd9"/><path d="m216 80v80a32 32 0 0 1 -32 32h-16l16 40-64-40h-48a31.99 31.99 0 0 1 -32-32v-80a32 32 0 0 1 32-32h112a31.981 31.981 0 0 1 32 32z" fill="#60d1e0"/><path d="m216 80v80a32 32 0 0 1 -32 32h-16l16 40-64-40h-48a31.946 31.946 0 0 1 -23.3-10.06c54.08-24.11 113.23-59.04 166.42-109.41a31.755 31.755 0 0 1 .88 7.47z" fill="#5ac6d4"/><g fill="#3fb7c7"><path d="m64 80h80v16h-80z"/><path d="m160 80h32v16h-32z"/><path d="m64 112h128v16h-128z"/><path d="m64 144h48v16h-48z"/><path d="m128 144h64v16h-64z"/></g><path d="m392 30.67v36.53l-8-11.2-8 8v-38.39a78.052 78.052 0 0 1 16 5.06z" fill="#61311b"/><path d="m304 344h96v72h-96z" fill="#ebebe9"/><path d="m472 320v176h-192v-48c-14.15-15.37-18.7-35.05-14.38-53.19l-.29-.14-26.71 73.14a27.837 27.837 0 0 1 -53.89-13.91l37.64-138.49a48.012 48.012 0 0 1 46.32-35.41h35.31l48 136 48-136h32a40 40 0 0 1 40 40z" fill="#348fd9"/><path d="m472 347.17v148.83h-192v-15.77c58.23-19.64 129.5-58.08 192-133.06z" fill="#3086cd"/><path d="m288 496h-16v-44.977c-22.125-26.234-21.414-62.945 2.125-88.453l11.75 10.86c-18.461 20.008-18.461 49.086.008 69.148a8.014 8.014 0 0 1 2.117 5.422z" fill="#2a71ad"/><path d="m432 496h-16v-48a8.014 8.014 0 0 1 2.117-5.422c18.469-20.062 18.469-49.14.008-69.148l11.75-10.86c23.539 25.508 24.25 62.219 2.125 88.453z" fill="#2a71ad"/><path d="m304 280-40 32 48 16-24 24 64 64z" fill="#4db7e5"/><path d="m400 280 40 32-48 16 24 24-64 64z" fill="#4db7e5"/><path d="m344 416h16v80h-16z" fill="#2a71ad"/><path d="m312 432h16v16h-16z" fill="#2a71ad"/><path d="m376 392h64v32h-64z" fill="#ffb531"/><path d="m376 408h64v16h-64z" fill="#ffa912"/><path d="m184 352h48v32h-48z" fill="#ebebe9"/><path d="m136 304h54.293a41.707 41.707 0 0 1 41.707 41.707v6.293a0 0 0 0 1 0 0h-48a48 48 0 0 1 -48-48 0 0 0 0 1 0 0z" fill="#fec9a3"/></svg>